<svg
width="174"
height="177"
viewBox="0 0 174 177"
fill="none"
xmlns="http://www.w3.org/2000/svg"
>
<g fill="black">
<path d="M95 98H174V121.908H95V98Z"  />
<path d="M95 153.092H174V177H95V153.092Z"  />
<path d="M95 98H117.419V173.882H95V98Z"  />
<path d="M151.581 98H174V173.882H151.581V98Z"  />
<path d="M0 0H95V20.4909H0V0Z"  />
<path d="M0 0H20.1515V98H0V0Z"  />
<path d="M74.8485 0H95V98H74.8485V0Z"  />
<path d="M0 77.5091H95V98H0V77.5091Z"  />
<path d="M0 118H19V137H0V118Z"  />
<path d="M95 20H114.75V39H95V20Z"  />
<path d="M133.46 20H153.21V39H133.46V20Z"  />
<path d="M154.25 39H174V59H154.25V39Z"  />
<path d="M114.75 39H134.5V59H114.75V39Z"  />
<path d="M114.75 78H134.5V98H114.75V78Z"  />
<path d="M114.75 0H134.5V20H114.75V0Z"  />
<path d="M134.5 59H154.25V78H134.5V59Z"  />
<path d="M95 59H114.75V78H95V59Z"  />
<path d="M154.25 78H174V98H154.25V78Z"  />
<path d="M37 118H56V137H37V118Z"  />
<path d="M57 137H76V157H57V137Z"  />
<path d="M40 38H59V57H40V38Z"  />
<path d="M19 137H38V157H19V137Z"  />
<path d="M76 157H95V177H76V157Z"  />
<path d="M19 98H38V118H19V98Z"  />
<path d="M38 157H57V176H38V157Z"  />
<path d="M0 157H19V176H0V157Z"  />
<path d="M153 1H172V20H153V1Z"  />
<path d="M76 117H95V137H76V117Z"  />
<path d="M56 97H75V117H56V97Z"  />
</g>
</svg>
